<?xml version="1.0" encoding="UTF-8"?>
<svg xmlns="http://www.w3.org/2000/svg" xmlns:xlink="http://www.w3.org/1999/xlink" viewBox="0 0 64 64" width="64px" height="64px">
<g id="surface45064664">
<path style=" stroke:none;fill-rule:nonzero;fill:rgb(100%,100%,100%);fill-opacity:1;" d="M 62 15.75 L 32 5.101562 L 2 15.75 L 2 48.25 L 32 58.898438 L 62 48.25 Z M 62 15.75 "/>
<path style=" stroke:none;fill-rule:nonzero;fill:rgb(100%,100%,100%);fill-opacity:1;" d="M 62 15.75 L 32 5.101562 L 2 15.75 L 2 48.25 L 32 58.898438 L 62 48.25 Z M 62 15.75 L 32 5.101562 "/>
<path style=" stroke:none;fill-rule:nonzero;fill:rgb(94.509804%,76.862746%,5.882353%);fill-opacity:1;" d="M 32 60.398438 C 31.851562 60.398438 31.648438 60.351562 31.5 60.300781 L 1.5 49.648438 C 0.898438 49.449219 0.5 48.851562 0.5 48.25 L 0.5 15.75 C 0.5 15.101562 0.898438 14.550781 1.5 14.351562 L 31.5 3.699219 C 32.300781 3.398438 33.148438 3.851562 33.398438 4.601562 C 33.699219 5.398438 33.25 6.25 32.5 6.5 L 3.5 16.800781 L 3.5 47.199219 L 32.5 57.449219 C 33.300781 57.75 33.699219 58.601562 33.398438 59.351562 C 33.199219 60 32.601562 60.398438 32 60.398438 Z M 32 60.398438 "/>
<path style=" stroke:none;fill-rule:nonzero;fill:rgb(100%,100%,100%);fill-opacity:1;" d="M 62 15.75 L 32 5.101562 M 62 15.75 L 32 5.101562 "/>
<path style=" stroke:none;fill-rule:nonzero;fill:rgb(94.509804%,76.862746%,5.882353%);fill-opacity:1;" d="M 63.5 15.75 C 63.5 15.148438 63.101562 14.550781 62.5 14.351562 L 45.601562 8.351562 C 45.199219 8.199219 44.800781 8.25 44.449219 8.398438 C 43.898438 8.648438 14.5 19.050781 14.5 19.050781 C 13.75 19.300781 13.25 20 13.25 20.800781 L 13.25 27.800781 C 13.25 28.449219 13.648438 29 14.25 29.199219 L 18.148438 30.601562 C 19.148438 30.949219 20.148438 30.25 20.148438 29.199219 L 20.148438 23.351562 C 20.148438 22.550781 20.648438 21.851562 21.398438 21.601562 L 47.949219 12.398438 L 57.550781 15.800781 L 31.5 24.949219 C 30.949219 25.148438 30.5 25.699219 30.5 26.351562 L 30.5 56.75 L 3.5 47.199219 L 3.5 16.800781 L 32.5 6.550781 C 33.300781 6.25 33.699219 5.398438 33.398438 4.648438 C 33.101562 3.851562 32.25 3.449219 31.5 3.75 L 1.5 14.351562 C 0.898438 14.550781 0.5 15.148438 0.5 15.75 L 0.5 48.25 C 0.5 48.898438 0.898438 49.449219 1.5 49.648438 L 31.5 60.25 C 31.648438 60.300781 31.851562 60.351562 32 60.351562 C 32.148438 60.351562 32.351562 60.300781 32.5 60.25 L 62.5 49.648438 C 63.101562 49.449219 63.5 48.851562 63.5 48.25 Z M 63.5 15.75 "/>
</g>
</svg>
