<?xml version="1.0" encoding="UTF-8"?>
<svg xmlns="http://www.w3.org/2000/svg" xmlns:xlink="http://www.w3.org/1999/xlink" viewBox="0 0 100 100" width="100px" height="100px">
<defs>
<radialGradient id="radial0" gradientUnits="userSpaceOnUse" cx="86" cy="80.625" fx="86" fy="80.625" r="34.041672" gradientTransform="matrix(2.083331,0,0,2.083331,0,0)">
<stop offset="0.177" style="stop-color:rgb(0%,0%,0%);stop-opacity:1;"/>
<stop offset="1" style="stop-color:rgb(0%,0%,0%);stop-opacity:0;"/>
</radialGradient>
<radialGradient id="radial1" gradientUnits="userSpaceOnUse" cx="85.43383" cy="157.326248" fx="85.43383" fy="157.326248" r="48.865921" gradientTransform="matrix(0.581395,0,0,0.581395,0,0)">
<stop offset="0.177" style="stop-color:rgb(0%,0%,0%);stop-opacity:1;"/>
<stop offset="1" style="stop-color:rgb(0%,0%,0%);stop-opacity:0;"/>
</radialGradient>
</defs>
<g id="surface119099773">
<path style=" stroke:none;fill-rule:nonzero;fill:rgb(94.509804%,76.862746%,5.882353%);fill-opacity:1;" d="M 76.878906 71.949219 C 83.441406 65.195312 87.5 55.992188 87.5 45.832031 C 87.5 25.125 70.707031 8.332031 50 8.332031 C 29.292969 8.332031 12.5 25.125 12.5 45.832031 C 12.5 55.992188 16.558594 65.195312 23.121094 71.949219 C 23.160156 71.988281 23.183594 72.035156 23.222656 72.074219 L 23.34375 72.195312 C 23.441406 72.296875 23.539062 72.394531 23.640625 72.492188 L 47.054688 95.90625 C 48.679688 97.535156 51.320312 97.535156 52.945312 95.90625 L 76.359375 72.492188 C 76.460938 72.394531 76.558594 72.296875 76.65625 72.195312 L 76.777344 72.074219 C 76.820312 72.035156 76.84375 71.988281 76.878906 71.949219 Z M 76.878906 71.949219 "/>
<path style=" stroke:none;fill-rule:nonzero;fill:url(#radial0);" d="M 69.792969 46.875 C 69.792969 57.804688 60.929688 66.667969 50 66.667969 C 39.070312 66.667969 30.207031 57.804688 30.207031 46.875 C 30.207031 35.945312 39.070312 27.082031 50 27.082031 C 60.929688 27.082031 69.792969 35.945312 69.792969 46.875 Z M 69.792969 46.875 "/>
<path style=" stroke:none;fill-rule:nonzero;fill:rgb(97.647059%,97.647059%,97.647059%);fill-opacity:1;" d="M 66.667969 45.832031 C 66.667969 55.039062 59.203125 62.5 50 62.5 C 40.796875 62.5 33.332031 55.039062 33.332031 45.832031 C 33.332031 36.628906 40.796875 29.167969 50 29.167969 C 59.203125 29.167969 66.667969 36.628906 66.667969 45.832031 Z M 66.667969 45.832031 "/>
<path style=" stroke:none;fill-rule:nonzero;fill:url(#radial1);" d="M 50 62.5 C 40.109375 62.5 31.386719 67.433594 26.109375 74.960938 L 47.050781 95.902344 C 48.679688 97.53125 51.316406 97.53125 52.945312 95.902344 L 73.886719 74.960938 C 68.613281 67.433594 59.890625 62.5 50 62.5 Z M 50 62.5 "/>
<path style=" stroke:none;fill-rule:nonzero;fill:rgb(10.196079%,73.725492%,61.176473%);fill-opacity:1;" d="M 50 66.667969 C 41.257812 66.667969 33.574219 71.160156 29.105469 77.957031 L 47.054688 95.90625 C 48.679688 97.535156 51.320312 97.535156 52.945312 95.90625 L 70.894531 77.957031 C 66.425781 71.160156 58.742188 66.667969 50 66.667969 Z M 50 66.667969 "/>
</g>
</svg>
